<svg width="30" height="30" viewBox="0 0 14 14" fill="none" xmlns="http://www.w3.org/2000/svg">
<path d="M7.21864 4.25508L7.54263 5.01291C7.5646 5.0788 7.62501 5.11724 7.68541 5.12273L8.50913 5.19961C8.68486 5.21609 8.75076 5.43026 8.62445 5.54558L8.00392 6.08923C7.95449 6.13316 7.93253 6.19906 7.949 6.25947L8.13022 7.06671C8.16866 7.23695 7.98744 7.36874 7.83368 7.28088L7.12528 6.85804C7.07037 6.82509 6.99898 6.82509 6.94407 6.85804L6.23567 7.28088C6.0874 7.36874 5.90069 7.23695 5.93913 7.06671L6.12035 6.25947C6.13682 6.19906 6.11485 6.13316 6.06543 6.08923L5.4449 5.54558C5.3131 5.43026 5.38449 5.21609 5.56022 5.19961L6.38394 5.12273C6.44983 5.11724 6.50475 5.0788 6.53221 5.0184L6.8562 4.26058C6.9221 4.09583 7.14725 4.09583 7.21864 4.25508Z" stroke="#F0C932" stroke-width="0.549146" stroke-miterlimit="10" stroke-linecap="round" stroke-linejoin="round"/>
<path d="M10.7701 5.86115C10.7843 3.79881 9.12398 2.11545 7.06164 2.10125C4.9993 2.08706 3.31594 3.74741 3.30175 5.80975C3.28755 7.87209 4.9479 9.55545 7.01024 9.56964C9.07258 9.58384 10.7559 7.92349 10.7701 5.86115Z" stroke="#F0C932" stroke-width="0.549146" stroke-miterlimit="10" stroke-linecap="round" stroke-linejoin="round"/>
<path d="M6.52669 9.53237L5.59863 11.8662L4.42346 10.5208L2.64972 10.6856L3.82489 7.74216" stroke="#F0C932" stroke-width="0.549146" stroke-miterlimit="10" stroke-linecap="round" stroke-linejoin="round"/>
<path d="M7.53716 9.53237L8.4707 11.8662L9.64039 10.5208L11.4196 10.6856L10.239 7.74216" stroke="#F0C932" stroke-width="0.549146" stroke-miterlimit="10" stroke-linecap="round" stroke-linejoin="round"/>
</svg>
